<?xml version="1.0" standalone="no"?>
<!DOCTYPE svg PUBLIC "-//W3C//DTD SVG 20010904//EN"
 "http://www.w3.org/TR/2001/REC-SVG-20010904/DTD/svg10.dtd">
<svg version="1.0" xmlns="http://www.w3.org/2000/svg"
 width="960.000000pt" height="960.000000pt" viewBox="0 0 960.000000 960.000000"
 preserveAspectRatio="xMidYMid meet">
<metadata>
Created by potrace 1.11, written by Peter Selinger 2001-2013
</metadata>
<g transform="translate(0.000000,960.000000) scale(0.100000,-0.100000)"
fill="#000000" stroke="none">
<path d="M10 8690 c0 -500 3 -910 8 -910 9 1 94 54 170 108 34 23 64 42 68 42
4 0 30 17 58 38 28 21 139 104 246 184 107 80 214 160 237 179 23 19 64 50 90
69 26 19 50 37 53 40 8 8 119 100 170 141 25 20 84 72 131 115 47 44 100 90
118 104 18 14 44 34 56 45 13 11 47 38 76 60 28 22 64 52 80 67 25 23 86 68
167 120 44 29 71 38 144 48 39 6 74 13 79 16 41 25 292 18 377 -12 54 -18 127
-49 166 -71 24 -13 59 -24 113 -36 29 -7 83 -43 79 -53 -4 -11 126 -89 149
-89 6 0 14 -6 18 -13 5 -7 12 -10 17 -7 4 3 10 -1 13 -9 3 -7 17 -13 32 -13
28 0 62 -23 34 -23 -7 -1 -3 -7 11 -14 14 -8 28 -12 31 -10 11 6 74 -23 89
-41 7 -9 27 -23 44 -32 37 -19 54 -32 189 -140 56 -45 120 -97 143 -115 23
-18 67 -51 98 -73 32 -22 143 -104 247 -182 105 -79 193 -143 197 -143 3 0 15
-9 27 -20 50 -51 85 -72 148 -91 46 -15 73 -29 84 -46 31 -48 45 -47 145 5 51
27 122 69 158 94 36 25 75 48 86 52 12 4 29 15 39 26 10 11 23 20 29 20 16 1
56 36 56 49 0 23 55 33 155 26 55 -4 156 -2 225 4 184 15 414 14 495 -4 49
-10 314 -6 373 6 84 18 98 9 95 -61 -2 -45 -7 -58 -35 -87 -51 -53 -179 -111
-268 -121 -41 -5 -86 -6 -100 -2 -29 8 -53 2 -45 -11 3 -4 -7 -11 -22 -15 -15
-3 -44 -10 -63 -14 -67 -16 -183 -23 -176 -11 11 17 -20 13 -38 -5 -10 -9 -16
-11 -16 -4 0 6 -6 10 -12 7 -7 -2 -12 -9 -11 -15 2 -6 -14 -11 -36 -10 -44 0
-81 -11 -211 -64 -114 -47 -146 -63 -134 -71 5 -3 43 -10 85 -16 77 -11 189
-47 189 -62 0 -5 15 -19 34 -31 32 -22 197 -171 297 -269 46 -46 133 -109 148
-109 4 0 20 -13 34 -30 15 -16 36 -30 46 -30 10 0 45 -16 77 -35 32 -19 71
-41 86 -47 56 -25 16 -88 -56 -88 -18 0 -24 -4 -20 -14 6 -17 -24 -36 -57 -36
-50 0 -153 24 -168 39 -9 9 -30 16 -48 17 -33 1 -117 36 -128 54 -3 5 -14 10
-23 10 -10 0 -29 8 -42 18 -14 9 -38 22 -55 27 -19 7 -29 17 -29 28 1 11 -6
17 -20 17 -12 0 -42 13 -66 30 -100 66 -117 76 -165 97 -101 42 -158 53 -301
57 -97 3 -150 9 -170 19 -16 8 -53 20 -82 27 -28 6 -55 17 -60 24 -4 6 -15 17
-25 25 -56 44 -24 -80 63 -245 82 -155 181 -327 203 -351 24 -27 56 -168 62
-273 12 -213 36 -341 108 -577 31 -101 50 -126 75 -101 7 7 21 7 39 2 15 -5
53 -9 83 -9 51 0 54 -1 55 -25 0 -21 8 -27 43 -39 40 -12 48 -11 135 18 108
36 187 49 357 59 l125 7 -95 13 c-52 7 -156 14 -231 17 -115 5 -145 2 -200
-14 -35 -10 -75 -21 -88 -24 l-23 -6 22 24 c21 22 21 24 5 48 -16 25 -46 101
-90 232 -60 179 -106 444 -74 433 11 -4 67 -97 95 -158 9 -19 21 -44 27 -55 6
-11 17 -33 26 -49 28 -57 143 -201 209 -263 36 -34 91 -74 121 -89 31 -15 59
-32 63 -38 20 -30 5 21 -22 74 -16 33 -30 68 -30 79 0 11 -5 33 -11 48 -6 15
-16 39 -21 53 -9 23 -28 62 -65 133 -27 50 -8 38 48 -30 162 -201 301 -300
464 -334 46 -10 413 -14 422 -5 2 2 -6 20 -18 40 -12 20 -23 52 -26 70 l-4 34
41 -14 c23 -8 56 -25 74 -38 17 -13 39 -26 49 -29 25 -9 35 -42 53 -180 38
-296 23 -860 -26 -982 -20 -49 -30 -89 -23 -95 5 -4 33 -27 64 -52 30 -24 65
-53 76 -64 11 -10 39 -35 63 -54 84 -69 242 -217 392 -368 26 -26 48 -42 48
-36 0 6 13 14 29 17 15 3 53 30 84 61 31 30 65 57 77 61 11 3 20 10 20 15 0 4
10 6 22 2 17 -4 20 -2 15 11 -3 8 1 21 9 27 12 10 14 7 14 -18 0 -17 4 -33 9
-36 13 -8 20 -59 22 -151 2 -90 18 -227 28 -235 14 -11 31 -51 31 -73 0 -44
93 -116 168 -132 36 -7 40 1 19 43 -54 107 -42 421 18 492 7 8 20 29 29 47 39
77 139 151 208 154 25 2 53 -3 61 -9 22 -19 28 -67 13 -110 -24 -67 -21 -214
4 -247 4 -5 10 -30 13 -55 12 -110 22 -132 91 -210 53 -59 75 -98 39 -69 -14
12 -16 12 -11 -1 3 -9 15 -14 28 -12 16 1 21 -2 16 -13 -6 -16 45 -75 64 -75
6 0 10 -7 10 -15 0 -8 6 -15 14 -15 12 0 107 -68 126 -89 3 -3 31 -26 64 -51
62 -47 140 -136 152 -173 13 -42 123 -173 250 -296 202 -198 293 -307 450
-543 64 -95 164 -304 164 -341 0 -7 4 -17 8 -22 9 -11 43 -116 48 -150 2 -11
8 -36 13 -55 14 -53 62 -231 71 -265 4 -16 8 1755 9 3938 l1 3967 -4795 0
-4795 0 0 -910z"/>
<path d="M3000 8792 c0 -8 53 -42 67 -42 10 0 -49 49 -59 50 -5 0 -8 -4 -8 -8z"/>
<path d="M3100 8720 c0 -5 5 -10 11 -10 5 0 7 5 4 10 -3 6 -8 10 -11 10 -2 0
-4 -4 -4 -10z"/>
<path d="M2043 7872 c-70 -70 -175 -181 -233 -247 -58 -66 -117 -132 -130
-146 -14 -14 -47 -52 -75 -84 -82 -96 -129 -148 -143 -159 -8 -6 -30 -28 -50
-48 -19 -20 -39 -35 -44 -32 -4 3 -8 1 -8 -4 0 -6 -15 -25 -32 -44 -18 -18
-54 -58 -80 -88 -25 -30 -54 -65 -65 -77 -10 -12 -25 -30 -33 -40 -48 -59
-116 -136 -174 -197 -58 -60 -85 -99 -56 -81 5 3 10 1 10 -4 0 -6 -4 -11 -10
-11 -5 0 -10 -6 -10 -14 0 -15 -27 -29 -39 -21 -5 2 -6 -6 -4 -18 3 -17 -2
-26 -21 -37 -14 -7 -28 -21 -31 -31 -3 -9 -13 -23 -21 -30 -13 -10 -17 -10
-24 0 -5 9 -10 10 -14 2 -4 -6 -2 -11 3 -11 18 0 12 -23 -13 -54 -14 -16 -29
-26 -35 -22 -6 4 -11 4 -10 -1 5 -27 -3 -43 -21 -43 -13 0 -20 -7 -20 -20 0
-18 -24 -50 -88 -118 -13 -14 -37 -43 -54 -66 -16 -22 -61 -76 -100 -118 -39
-43 -78 -87 -85 -98 -8 -11 -21 -20 -28 -20 -8 0 -21 -13 -30 -30 -15 -29 -35
-40 -35 -19 0 5 -5 7 -11 3 -7 -4 -7 -10 -1 -16 12 -12 5 -38 -9 -38 -5 0 -9
7 -9 15 0 8 -5 15 -10 15 -16 0 -25 -31 -11 -39 8 -5 5 -15 -10 -35 -24 -31
-36 -28 -19 4 19 35 3 35 -29 -1 -17 -18 -28 -35 -25 -38 3 -3 9 1 14 9 5 8
12 12 15 8 8 -8 -38 -77 -52 -78 -7 0 -13 -3 -13 -8 0 -4 -13 -22 -30 -40
l-30 -33 0 -407 0 -407 104 -1 c106 -1 216 -21 299 -52 66 -25 137 -78 137
-101 0 -11 6 -22 13 -24 9 -4 9 -6 0 -6 -7 -1 -17 8 -23 19 -10 19 -70 57 -70
45 0 -7 53 -75 88 -113 l22 -25 0 29 c0 43 18 17 31 -46 6 -30 11 -67 10 -82
-1 -15 3 -29 8 -33 12 -7 4 -423 -10 -575 -6 -58 -14 -145 -19 -195 -5 -49
-16 -112 -25 -140 -9 -27 -18 -81 -20 -120 -5 -80 -13 -117 -26 -109 -5 3 -9
1 -9 -5 0 -5 4 -11 9 -13 5 -1 3 -28 -4 -58 -17 -76 -23 -91 -62 -172 -28 -60
-55 -92 -156 -191 -139 -137 -238 -223 -273 -239 l-24 -11 0 -1269 0 -1268
4375 0 4375 0 -6 25 c-3 14 -7 81 -8 150 0 69 -4 125 -8 125 -5 0 -8 14 -8 31
0 21 4 28 13 23 6 -4 5 1 -4 12 -18 21 -35 119 -19 109 6 -3 10 -20 10 -37 0
-17 2 -29 5 -26 5 5 -22 342 -30 368 -2 8 -9 71 -15 140 -6 68 -16 142 -22
165 -6 22 -11 43 -10 47 1 4 -5 38 -13 76 -7 37 -17 90 -21 117 -5 42 -36 119
-53 135 -12 10 -41 69 -41 82 -1 7 -9 31 -20 53 -11 22 -19 43 -20 47 0 4 -22
53 -50 110 -27 57 -50 110 -50 118 0 13 -2 13 -10 0 -7 -11 -20 -3 -67 40 -32
30 -58 60 -58 65 0 19 -20 25 -65 19 -38 -5 -153 11 -249 33 -17 4 -22 2 -17
-6 9 -14 -23 -15 -73 -2 -20 6 -64 16 -98 22 -34 7 -60 15 -58 18 1 3 -18 7
-43 9 -26 1 -63 11 -82 21 -20 10 -51 22 -70 26 -19 4 -56 20 -82 36 -72 46
-88 38 -221 -113 -42 -47 -79 -77 -135 -107 -42 -23 -115 -69 -161 -102 -46
-33 -100 -67 -120 -75 -68 -30 -215 -60 -267 -55 -16 1 -67 50 -93 88 -30 45
-27 123 5 123 8 0 14 5 14 10 0 6 10 14 23 19 59 23 280 194 369 286 82 84
139 191 145 275 4 46 2 58 -15 73 -20 18 -22 17 -102 -38 -46 -31 -105 -68
-133 -83 -27 -15 -61 -33 -76 -41 -26 -15 -148 -49 -286 -81 -105 -25 -189
-57 -349 -134 -131 -64 -298 -116 -369 -116 -79 0 -156 58 -157 118 0 17 5 32
10 32 6 0 10 10 10 23 0 33 51 84 118 115 31 15 71 37 87 48 17 12 71 43 120
69 50 26 111 63 138 82 26 18 50 33 54 33 3 0 21 11 39 25 18 14 44 29 58 35
14 5 26 14 26 20 0 5 9 10 20 10 11 0 20 4 20 8 0 5 -45 14 -101 20 -114 14
-236 51 -283 87 -18 14 -37 25 -42 25 -6 0 -26 15 -45 33 -127 115 -189 167
-201 167 -7 0 -41 -13 -74 -30 -34 -16 -103 -44 -155 -61 -105 -35 -186 -37
-248 -4 -63 32 -145 127 -220 254 -41 69 -94 156 -120 194 -25 38 -57 86 -71
107 -31 47 -190 215 -261 276 -54 46 -208 224 -264 303 -76 108 -183 342 -213
466 -51 211 -53 225 -55 445 0 118 4 276 9 350 l10 135 16 -35 c19 -41 52 -75
66 -66 6 3 2 27 -8 58 -33 101 -32 168 3 155 9 -3 17 -26 21 -62 9 -76 34
-123 100 -186 14 -14 16 -19 6 -19 -19 0 20 -29 40 -30 8 0 21 9 28 20 10 17
10 20 -3 20 -8 0 -19 9 -25 20 -6 11 -8 20 -4 20 3 0 1 7 -7 16 -10 13 -10 17
2 25 8 5 19 9 25 9 18 0 27 50 13 66 -9 11 -9 18 -1 26 8 8 7 16 -1 29 -8 12
-8 22 -2 28 27 27 222 -105 286 -194 18 -25 34 -45 36 -45 2 0 -12 32 -33 70
-20 39 -40 70 -45 70 -5 0 -9 4 -9 10 0 5 6 9 13 7 6 -1 12 3 12 9 0 14 -61
84 -74 84 -5 0 -33 19 -61 41 -33 26 -55 37 -59 31 -11 -18 -161 40 -161 62 0
5 -3 7 -6 4 -3 -4 -1 -16 6 -27 10 -19 8 -21 -25 -21 -42 0 -71 13 -103 48
-29 31 -41 21 -17 -14 14 -22 15 -28 4 -35 -18 -11 -26 -11 -69 1 -51 14 -103
62 -140 126 -35 63 -32 82 6 41 14 -15 31 -27 38 -27 8 0 27 -7 42 -15 27 -14
29 -14 32 6 2 12 -4 52 -13 90 -10 38 -15 76 -12 84 4 8 2 17 -3 20 -13 8 -13
55 0 55 6 0 10 -6 10 -14 0 -8 13 -25 29 -38 16 -14 34 -34 40 -46 18 -34 89
-64 171 -73 62 -6 92 -17 173 -59 97 -50 120 -54 116 -22 -3 30 1 35 16 22 8
-7 15 -22 15 -34 0 -11 5 -28 11 -36 7 -11 8 -6 3 19 -5 29 -4 33 10 28 20 -8
21 11 3 38 -8 11 -17 29 -20 40 -3 11 -17 51 -31 89 -14 39 -23 72 -21 75 3 2
22 -11 43 -31 50 -48 139 -107 171 -114 14 -3 39 -10 55 -15 16 -5 39 -9 52
-9 21 0 22 3 13 32 -5 18 -15 46 -23 63 -34 72 -88 215 -106 280 -61 224 -75
270 -82 273 -4 2 -8 14 -8 26 0 55 -33 141 -80 209 -108 156 -170 241 -207
284 -21 25 -42 53 -47 62 -5 9 -15 20 -23 24 -7 4 -13 14 -13 21 0 8 -7 17
-16 20 -21 8 -24 8 -24 -5 0 -21 -54 -145 -80 -184 -24 -36 -86 -160 -112
-225 -6 -14 -16 -37 -24 -51 -7 -14 -10 -36 -7 -49 4 -15 2 -21 -5 -16 -13 8
-25 -26 -16 -49 4 -9 2 -20 -4 -24 -13 -8 -32 -181 -32 -290 0 -129 -54 -180
-137 -128 -51 32 -57 41 -83 117 -29 87 -36 284 -14 391 10 48 12 80 6 94 -5
11 -20 43 -32 70 -13 28 -46 75 -74 105 -28 30 -71 79 -96 109 -25 30 -76 81
-115 113 -38 32 -82 70 -97 84 -20 18 -53 30 -123 45 -95 19 -197 61 -245 99
-14 11 -33 20 -42 20 -9 0 -20 5 -23 10 -4 6 -23 19 -43 29 -20 11 -55 35 -77
55 -22 20 -42 36 -45 36 -3 0 -14 14 -24 30 -9 17 -22 27 -28 24 -7 -4 -8 -2
-4 5 4 6 -16 49 -46 97 -29 47 -62 103 -72 125 -19 38 -45 57 -31 22 14 -35
17 -53 9 -53 -5 0 -29 54 -53 120 -24 66 -48 120 -52 120 -5 0 -66 -57 -136
-128z m272 -150 c-8 -8 -25 10 -19 20 4 6 9 5 15 -3 4 -7 6 -15 4 -17z m169
-235 c70 -68 69 -87 -1 -25 -55 48 -93 97 -92 119 0 8 7 4 17 -11 9 -14 43
-51 76 -83z m108 -89 c4 -10 14 -18 23 -18 8 0 15 -4 15 -10 0 -13 -3 -13 -31
3 -42 22 -49 28 -44 38 9 13 29 6 37 -13z m93 -49 c4 -5 18 -15 32 -20 14 -5
23 -12 19 -16 -3 -3 -16 -2 -29 4 -12 6 -30 14 -40 17 -10 3 -15 10 -12 16 8
13 22 13 30 -1z m1365 -991 c0 -21 20 -108 42 -178 14 -48 37 -98 67 -145 36
-58 84 -155 79 -161 -3 -2 -23 5 -47 16 -23 12 -45 19 -50 16 -4 -3 -37 3 -72
12 l-64 17 -8 68 c-9 75 5 248 29 365 6 27 24 20 24 -10z m30 -872 c0 -8 3
-21 6 -30 10 -27 -22 -18 -34 9 -16 34 -15 35 8 35 11 0 20 -6 20 -14z m-3489
-2097 l-9 -34 -1 31 c-1 17 2 34 6 37 12 13 14 -1 4 -34z m-11 -64 c0 -8 -4
-15 -10 -15 -5 0 -7 7 -4 15 4 8 8 15 10 15 2 0 4 -7 4 -15z m8137 -2807 c-3
-8 -6 -5 -6 6 -1 11 2 17 5 13 3 -3 4 -12 1 -19z"/>
<path d="M5598 7923 c12 -2 32 -2 45 0 12 2 2 4 -23 4 -25 0 -35 -2 -22 -4z"/>
<path d="M5518 7908 c9 -9 15 -9 24 0 9 9 7 12 -12 12 -19 0 -21 -3 -12 -12z"/>
<path d="M2260 7861 c0 -6 4 -13 10 -16 6 -3 7 1 4 9 -7 18 -14 21 -14 7z"/>
<path d="M1945 7840 c3 -5 8 -10 11 -10 2 0 4 5 4 10 0 6 -5 10 -11 10 -5 0
-7 -4 -4 -10z"/>
<path d="M5240 6181 c0 -6 4 -13 10 -16 6 -3 7 1 4 9 -7 18 -14 21 -14 7z"/>
<path d="M5120 6171 c0 -6 4 -13 10 -16 6 -3 7 1 4 9 -7 18 -14 21 -14 7z"/>
<path d="M6258 5973 c7 -3 16 -2 19 1 4 3 -2 6 -13 5 -11 0 -14 -3 -6 -6z"/>
<path d="M5063 5823 c-7 -2 -13 -11 -13 -19 0 -8 6 -14 13 -14 6 0 22 -3 35
-6 17 -5 22 -2 22 14 0 26 -27 38 -57 25z"/>
<path d="M5991 5683 c-35 -34 -35 -34 -120 -31 l-86 3 3 28 c4 35 -9 35 -31
-2 -17 -29 -23 -30 -157 -45 -31 -3 -98 -37 -136 -69 -16 -13 -38 -29 -49 -35
-17 -10 -18 -11 -2 -12 9 0 17 -4 17 -9 0 -5 3 -17 7 -27 3 -10 2 -15 -3 -12
-5 3 -9 -7 -10 -23 -1 -34 6 -37 24 -9 19 31 42 25 42 -10 0 -23 6 -33 25 -40
14 -5 29 -20 34 -33 11 -29 64 -75 97 -83 37 -9 75 3 67 22 -3 9 0 20 8 25 10
6 10 9 2 9 -7 0 -13 11 -13 25 0 14 6 25 13 25 6 0 4 5 -6 11 -14 8 -16 14 -6
25 6 8 17 14 23 14 6 0 4 -5 -4 -10 -8 -5 -10 -10 -4 -10 35 0 40 64 10 112
-20 32 6 42 101 39 80 -2 289 -34 300 -45 12 -11 -72 -110 -137 -161 -14 -11
-32 -29 -40 -40 -15 -21 -6 -15 90 58 24 18 43 24 58 20 22 -5 31 10 12 22 -6
4 3 23 22 47 l32 40 65 -5 c92 -7 107 11 35 43 -30 12 -54 27 -54 31 0 5 18 9
40 9 22 0 40 5 40 10 0 6 -11 10 -24 10 -43 0 -88 13 -93 27 -3 7 3 23 13 34
18 20 16 20 -26 -2 -32 -17 -60 -24 -98 -23 -29 1 -56 4 -59 7 -3 4 0 20 7 37
7 17 11 32 9 34 -2 2 -19 -12 -38 -31z m-281 -193 c0 -5 -2 -10 -4 -10 -3 0
-8 5 -11 10 -3 6 -1 10 4 10 6 0 11 -4 11 -10z m-40 -50 c0 -33 -19 -40 -40
-15 -16 20 -5 45 20 45 16 0 20 -7 20 -30z"/>
<path d="M73 5680 c-11 -16 -10 -18 2 -14 8 4 15 12 15 20 0 19 -3 18 -17 -6z"/>
<path d="M3967 5313 c-13 -12 -7 -21 18 -25 27 -6 32 1 13 20 -14 14 -22 15
-31 5z"/>
<path d="M5705 5260 c-16 -7 -17 -9 -3 -9 9 -1 20 4 23 9 7 11 7 11 -20 0z"/>
<path d="M5648 5253 c6 -2 18 -2 25 0 6 3 1 5 -13 5 -14 0 -19 -2 -12 -5z"/>
<path d="M18 4723 c6 -2 18 -2 25 0 6 3 1 5 -13 5 -14 0 -19 -2 -12 -5z"/>
<path d="M218 4713 c6 -2 18 -2 25 0 6 3 1 5 -13 5 -14 0 -19 -2 -12 -5z"/>
<path d="M425 4660 c3 -5 8 -10 11 -10 2 0 4 5 4 10 0 6 -5 10 -11 10 -5 0 -7
-4 -4 -10z"/>
<path d="M6265 4522 c-6 -4 -26 -27 -45 -52 -81 -106 -195 -210 -280 -256 -45
-25 -53 -36 -35 -53 11 -11 44 -15 132 -15 162 0 213 7 265 35 26 14 48 11 48
-6 0 -8 -4 -15 -9 -15 -10 0 -57 -47 -176 -174 -44 -47 -86 -85 -92 -86 -7 0
-13 -4 -13 -10 0 -5 -9 -19 -20 -30 -11 -11 -20 -28 -20 -37 0 -13 6 -11 28
10 15 15 32 27 36 27 5 0 16 11 27 23 10 13 48 39 84 58 56 28 69 32 85 21 17
-10 20 -10 20 3 0 8 5 15 10 15 12 0 13 -35 1 -77 -5 -17 -12 -68 -15 -112 -6
-74 -5 -81 14 -91 18 -10 22 -7 35 24 9 20 19 36 24 36 6 0 12 8 15 18 9 28
181 202 199 202 9 0 17 4 17 9 0 4 20 16 45 25 31 12 45 23 45 36 0 17 -54 91
-84 115 -7 6 -15 18 -19 28 -4 9 -15 20 -24 24 -24 8 -63 44 -63 57 0 6 -11
24 -25 40 -14 16 -25 32 -25 36 0 7 -164 180 -171 180 -2 0 -9 -4 -14 -8z"/>
<path d="M7185 4260 c-3 -5 1 -10 9 -10 8 0 18 5 21 10 3 6 -1 10 -9 10 -8 0
-18 -4 -21 -10z"/>
<path d="M6579 3953 c-13 -17 -13 -17 6 -3 11 8 22 16 24 17 2 2 0 3 -6 3 -6
0 -17 -8 -24 -17z"/>
<path d="M502 3160 c0 -14 2 -19 5 -12 2 6 2 18 0 25 -3 6 -5 1 -5 -13z"/>
<path d="M6225 2690 c4 -6 11 -8 16 -5 14 9 11 15 -7 15 -8 0 -12 -5 -9 -10z"/>
<path d="M6125 2640 c-3 -6 1 -7 9 -4 18 7 21 14 7 14 -6 0 -13 -4 -16 -10z"/>
<path d="M7588 2093 c7 -3 16 -2 19 1 4 3 -2 6 -13 5 -11 0 -14 -3 -6 -6z"/>
<path d="M8350 1916 c0 -2 8 -10 18 -17 15 -13 16 -12 3 4 -13 16 -21 21 -21
13z"/>
<path d="M8761 144 c0 -11 3 -14 6 -6 3 7 2 16 -1 19 -3 4 -6 -2 -5 -13z"/>
</g>
</svg>
